<svg width="157" height="33" viewBox="0 0 157 33" fill="none" xmlns="http://www.w3.org/2000/svg">
<path d="M16.694 8.748C16.694 8.748 16.5013 8.63467 16.116 8.408C15.7307 8.18133 15.2207 7.932 14.586 7.66C13.9513 7.36533 13.26 7.10467 12.512 6.878C11.764 6.65133 11.0273 6.538 10.302 6.538C9.73533 6.538 9.27067 6.62867 8.908 6.81C8.54533 6.99133 8.364 7.29733 8.364 7.728C8.364 8.36267 8.76067 8.816 9.554 9.088C10.37 9.33733 11.4693 9.68867 12.852 10.142C14.348 10.5953 15.64 11.1167 16.728 11.706C17.816 12.2953 18.6547 13.0547 19.244 13.984C19.8333 14.8907 20.128 16.1033 20.128 17.622C20.128 19.0727 19.8673 20.2967 19.346 21.294C18.8247 22.2687 18.122 23.0507 17.238 23.64C16.354 24.2293 15.368 24.66 14.28 24.932C13.192 25.1813 12.0813 25.306 10.948 25.306C9.792 25.306 8.57933 25.1927 7.31 24.966C6.06333 24.7167 4.85067 24.388 3.672 23.98C2.49333 23.5493 1.41667 23.0507 0.442 22.484L3.298 16.67C3.298 16.67 3.52467 16.806 3.978 17.078C4.43133 17.35 5.032 17.656 5.78 17.996C6.528 18.336 7.35533 18.642 8.262 18.914C9.19133 19.186 10.1207 19.322 11.05 19.322C11.7753 19.322 12.274 19.2313 12.546 19.05C12.8407 18.846 12.988 18.5853 12.988 18.268C12.988 17.792 12.7387 17.4293 12.24 17.18C11.7413 16.908 11.084 16.6587 10.268 16.432C9.47467 16.1827 8.59067 15.8993 7.616 15.582C5.48533 14.8567 3.93267 13.9953 2.958 12.998C1.98333 11.978 1.496 10.584 1.496 8.816C1.496 7.02533 1.91533 5.52933 2.754 4.328C3.59267 3.12667 4.692 2.22 6.052 1.608C7.43467 0.973333 8.91933 0.655999 10.506 0.655999C11.6847 0.655999 12.818 0.803333 13.906 1.098C15.0167 1.37 16.048 1.71 17 2.118C17.9747 2.526 18.8247 2.91133 19.55 3.274L16.694 8.748ZM29.3144 25.34C27.8637 25.34 26.5604 24.932 25.4044 24.116C24.2484 23.3 23.3417 22.1893 22.6844 20.784C22.027 19.3787 21.6984 17.7807 21.6984 15.99C21.6984 14.222 22.0497 12.6467 22.7524 11.264C23.4777 9.88133 24.4637 8.79333 25.7104 8C26.957 7.184 28.3737 6.776 29.9604 6.776C31.2977 6.776 32.431 7.048 33.3604 7.592C34.3124 8.136 35.1057 8.89533 35.7404 9.87V7.116H41.3504V32.276H34.8904V22.348C33.8477 24.3427 31.989 25.34 29.3144 25.34ZM31.8304 19.9C33.0317 19.9 34.0517 19.288 34.8904 18.064V14.868C34.5957 14.0747 34.131 13.44 33.4964 12.964C32.8844 12.4653 32.2384 12.216 31.5584 12.216C30.629 12.216 29.847 12.6013 29.2124 13.372C28.6004 14.1427 28.2944 15.072 28.2944 16.16C28.2944 17.2707 28.623 18.1773 29.2804 18.88C29.9377 19.56 30.7877 19.9 31.8304 19.9ZM56.768 12.624C55.5214 12.624 54.388 12.76 53.368 13.032C52.348 13.304 51.5887 13.7573 51.09 14.392V25H44.63V7.116H50.546V10.516C51.1807 9.31467 51.974 8.39667 52.926 7.762C53.878 7.10467 54.8867 6.776 55.952 6.776C56.3827 6.776 56.6547 6.78733 56.768 6.81V12.624Z" fill="#252A51"/>
<path d="M59.3676 25V7.25H61.1176V23.45H71.3676V25H59.3676ZM78.9492 25.25C77.6992 25.25 76.5826 24.9417 75.5992 24.325C74.6159 23.7083 73.8409 22.8833 73.2742 21.85C72.7076 20.8167 72.4242 19.6833 72.4242 18.45C72.4242 17.2333 72.6992 16.1167 73.2492 15.1C73.8159 14.0833 74.5909 13.275 75.5742 12.675C76.5576 12.0583 77.6742 11.75 78.9242 11.75C80.2076 11.75 81.3326 12.0583 82.2992 12.675C83.2659 13.2917 84.0159 14.1083 84.5492 15.125C85.0992 16.125 85.3742 17.225 85.3742 18.425C85.3742 18.6917 85.3659 18.9167 85.3492 19.1H74.1992C74.2826 20.0333 74.5492 20.8667 74.9992 21.6C75.4492 22.3167 76.0242 22.8917 76.7242 23.325C77.4242 23.7417 78.1909 23.95 79.0242 23.95C79.8742 23.95 80.6742 23.7333 81.4242 23.3C82.1742 22.8667 82.7076 22.3 83.0242 21.6L84.4992 22C84.2326 22.6333 83.8159 23.2 83.2492 23.7C82.6992 24.1833 82.0576 24.5667 81.3242 24.85C80.5909 25.1167 79.7992 25.25 78.9492 25.25ZM74.1492 17.875H83.7742C83.7076 16.9417 83.4492 16.1167 82.9992 15.4C82.5492 14.6667 81.9742 14.1 81.2742 13.7C80.5742 13.2833 79.7992 13.075 78.9492 13.075C78.0992 13.075 77.3242 13.2833 76.6242 13.7C75.9242 14.1 75.3492 14.6667 74.8992 15.4C74.4659 16.1167 74.2159 16.9417 74.1492 17.875ZM86.9471 21.25C86.9471 20.45 87.1804 19.7583 87.6471 19.175C88.1137 18.575 88.7554 18.1083 89.5721 17.775C90.4054 17.4417 91.3637 17.275 92.4471 17.275C93.0804 17.275 93.7387 17.3333 94.4221 17.45C95.1054 17.55 95.7137 17.6917 96.2471 17.875V16.775C96.2471 15.675 95.9221 14.8 95.2721 14.15C94.6221 13.5 93.7221 13.175 92.5721 13.175C91.8887 13.175 91.2054 13.3083 90.5221 13.575C89.8387 13.825 89.1304 14.2 88.3971 14.7L87.7471 13.5C88.5971 12.9167 89.4304 12.4833 90.2471 12.2C91.0637 11.9 91.8971 11.75 92.7471 11.75C94.3471 11.75 95.6137 12.2083 96.5471 13.125C97.4804 14.0417 97.9471 15.3083 97.9471 16.925V22.95C97.9471 23.4 98.1554 23.6333 98.5721 23.65V25C98.2054 25.05 97.9471 25.0667 97.7971 25.05C97.3804 25.0333 97.0637 24.9 96.8471 24.65C96.6304 24.4 96.5137 24.1333 96.4971 23.85L96.4721 22.9C95.8887 23.65 95.1304 24.2333 94.1971 24.65C93.2637 25.05 92.3137 25.25 91.3471 25.25C90.4971 25.25 89.7387 25.075 89.0721 24.725C88.4054 24.3583 87.8804 23.875 87.4971 23.275C87.1304 22.6583 86.9471 21.9833 86.9471 21.25ZM95.6721 22.25C96.0554 21.8 96.2471 21.3833 96.2471 21V19.1C95.0971 18.65 93.8971 18.425 92.6471 18.425C91.4304 18.425 90.4471 18.6667 89.6971 19.15C88.9471 19.6333 88.5721 20.2917 88.5721 21.125C88.5721 21.8417 88.8471 22.4917 89.3971 23.075C89.9637 23.6583 90.7471 23.95 91.7471 23.95C92.5637 23.95 93.3221 23.7917 94.0221 23.475C94.7387 23.1583 95.2887 22.75 95.6721 22.25ZM108.12 13.475C106.987 13.5083 105.987 13.825 105.12 14.425C104.27 15.025 103.67 15.85 103.32 16.9V25H101.62V11.975H103.22V15.1C103.67 14.1833 104.262 13.4417 104.995 12.875C105.745 12.3083 106.537 11.9917 107.37 11.925C107.537 11.9083 107.678 11.9 107.795 11.9C107.912 11.9 108.02 11.9083 108.12 11.925V13.475ZM121.335 25H119.635V17.725C119.635 16.1917 119.401 15.075 118.935 14.375C118.485 13.6583 117.785 13.3 116.835 13.3C116.168 13.3 115.51 13.4667 114.86 13.8C114.21 14.1167 113.635 14.5583 113.135 15.125C112.651 15.675 112.301 16.3083 112.085 17.025V25H110.385V11.975H111.935V14.925C112.451 13.975 113.21 13.2083 114.21 12.625C115.21 12.0417 116.293 11.75 117.46 11.75C118.426 11.75 119.193 11.9833 119.76 12.45C120.326 12.9 120.726 13.55 120.96 14.4C121.21 15.2333 121.335 16.225 121.335 17.375V25ZM124.96 9.25V6.75H126.66V9.25H124.96ZM124.96 25V11.975H126.66V25H124.96ZM141.354 25H139.654V17.725C139.654 16.1917 139.421 15.075 138.954 14.375C138.504 13.6583 137.804 13.3 136.854 13.3C136.188 13.3 135.529 13.4667 134.879 13.8C134.229 14.1167 133.654 14.5583 133.154 15.125C132.671 15.675 132.321 16.3083 132.104 17.025V25H130.404V11.975H131.954V14.925C132.471 13.975 133.229 13.2083 134.229 12.625C135.229 12.0417 136.313 11.75 137.479 11.75C138.446 11.75 139.213 11.9833 139.779 12.45C140.346 12.9 140.746 13.55 140.979 14.4C141.229 15.2333 141.354 16.225 141.354 17.375V25ZM150.204 25.175C149.304 25.175 148.479 24.9917 147.729 24.625C146.996 24.2583 146.354 23.7667 145.804 23.15C145.271 22.5167 144.854 21.8 144.554 21C144.254 20.2 144.104 19.375 144.104 18.525C144.104 17.3083 144.363 16.1917 144.879 15.175C145.396 14.1417 146.104 13.3167 147.004 12.7C147.921 12.0667 148.971 11.75 150.154 11.75C151.271 11.75 152.238 12.0333 153.054 12.6C153.888 13.1667 154.588 13.8667 155.154 14.7V11.975H156.679V25.05C156.679 26.2667 156.388 27.2833 155.804 28.1C155.221 28.9167 154.446 29.5333 153.479 29.95C152.513 30.3667 151.454 30.575 150.304 30.575C148.804 30.575 147.596 30.3083 146.679 29.775C145.779 29.2417 145.038 28.525 144.454 27.625L145.504 26.8C146.021 27.6167 146.704 28.225 147.554 28.625C148.421 29.025 149.338 29.225 150.304 29.225C151.154 29.225 151.929 29.0667 152.629 28.75C153.346 28.45 153.913 27.9917 154.329 27.375C154.763 26.7583 154.979 25.9833 154.979 25.05V22.475C154.479 23.2917 153.796 23.95 152.929 24.45C152.063 24.9333 151.154 25.175 150.204 25.175ZM150.679 23.75C151.363 23.75 152.013 23.5917 152.629 23.275C153.246 22.9583 153.763 22.5583 154.179 22.075C154.613 21.575 154.879 21.0583 154.979 20.525V16.5C154.729 15.8667 154.371 15.3083 153.904 14.825C153.438 14.325 152.904 13.9417 152.304 13.675C151.704 13.3917 151.096 13.25 150.479 13.25C149.513 13.25 148.679 13.5167 147.979 14.05C147.296 14.5667 146.763 15.2333 146.379 16.05C146.013 16.85 145.829 17.6833 145.829 18.55C145.829 19.4833 146.046 20.35 146.479 21.15C146.913 21.9333 147.496 22.5667 148.229 23.05C148.963 23.5167 149.779 23.75 150.679 23.75Z" fill="#7781D5"/>
</svg>
