<svg width="24" height="24" viewBox="0 0 24 24" fill="none" xmlns="http://www.w3.org/2000/svg">
<path d="M10.001 17.9999C11.776 17.9995 13.4998 17.4053 14.898 16.3119L19.294 20.7079L20.708 19.2939L16.312 14.8979C17.406 13.4995 18.0006 11.7753 18.001 9.99988C18.001 5.58888 14.412 1.99988 10.001 1.99988C5.58998 1.99988 2.00098 5.58888 2.00098 9.99988C2.00098 14.4109 5.58998 17.9999 10.001 17.9999ZM10.001 3.99988C13.31 3.99988 16.001 6.69088 16.001 9.99988C16.001 13.3089 13.31 15.9999 10.001 15.9999C6.69198 15.9999 4.00098 13.3089 4.00098 9.99988C4.00098 6.69088 6.69198 3.99988 10.001 3.99988Z" fill="#858586"/>
</svg>
